<svg xmlns="http://www.w3.org/2000/svg" xmlns:xlink="http://www.w3.org/1999/xlink" viewBox="0 0 2000 1000"><defs><style>.cls-1{fill:none;}.cls-2{isolation:isolate;}.cls-3{fill:#fff;}.cls-4{fill:url(#White_Black);}.cls-5{fill:url(#linear-gradient);}.cls-6{fill:url(#linear-gradient-2);}.cls-7{fill:url(#linear-gradient-3);}.cls-8{fill:url(#linear-gradient-4);}.cls-9{fill:url(#linear-gradient-5);}.cls-10{fill:url(#linear-gradient-6);}.cls-11{fill:url(#linear-gradient-7);}.cls-12{fill:url(#linear-gradient-8);}.cls-13{fill:url(#linear-gradient-9);}.cls-14{fill:url(#linear-gradient-10);}.cls-15{fill:url(#linear-gradient-11);}.cls-16{clip-path:url(#clip-path);}.cls-17{fill:aqua;}.cls-18{fill:url(#linear-gradient-12);}.cls-19{mix-blend-mode:overlay;}.cls-20{clip-path:url(#clip-path-2);}.cls-21{fill:url(#linear-gradient-18);}</style><linearGradient id="White_Black" x1="1093.87573" y1="777.3625" x2="1093.87573" y2="1027.34085" gradientUnits="userSpaceOnUse"><stop offset="0" stop-color="#fff"/><stop offset="1"/></linearGradient><linearGradient id="linear-gradient" x1="129.93219" y1="436.08705" x2="278.87705" y2="535.88512" gradientUnits="userSpaceOnUse"><stop offset="0" stop-color="#0071bc"/><stop offset="0.67127" stop-color="aqua"/><stop offset="1" stop-color="#0071bc"/></linearGradient><linearGradient id="linear-gradient-2" x1="262.49957" y1="125.34304" x2="635.42593" y2="375.21626" xlink:href="#linear-gradient"/><linearGradient id="linear-gradient-3" x1="235.79676" y1="418.9936" x2="264.41644" y2="438.16975" gradientUnits="userSpaceOnUse"><stop offset="0" stop-color="#fff"/><stop offset="1" stop-color="#b3b3b3"/></linearGradient><linearGradient id="linear-gradient-4" x1="299.30157" y1="175.43384" x2="553.69754" y2="345.8877" xlink:href="#linear-gradient-3"/><linearGradient id="linear-gradient-5" x1="-78.58338" y1="1870.56133" x2="-78.58338" y2="1898.89331" gradientTransform="translate(1030.33336 -1628.15027) rotate(13.25595)" xlink:href="#linear-gradient-3"/><linearGradient id="linear-gradient-6" x1="69.82601" y1="1981.6369" x2="69.82601" y2="2014.86216" gradientTransform="translate(1030.33336 -1628.15027) rotate(13.25595)" xlink:href="#linear-gradient-3"/><linearGradient id="linear-gradient-7" x1="-295.71796" y1="1929.72668" x2="-295.71796" y2="1954.07429" gradientTransform="translate(1030.33336 -1628.15027) rotate(13.25595)" xlink:href="#linear-gradient"/><linearGradient id="linear-gradient-8" x1="-425.45987" y1="2064.59038" x2="-425.45987" y2="2098.05466" gradientTransform="translate(1030.33336 -1628.15027) rotate(13.25595)" xlink:href="#linear-gradient-3"/><linearGradient id="linear-gradient-9" x1="-360.48079" y1="2233.24827" x2="-360.48079" y2="2256.83213" gradientTransform="translate(1030.33336 -1628.15027) rotate(13.25595)" xlink:href="#linear-gradient"/><linearGradient id="linear-gradient-10" x1="-268.49333" y1="2067.75623" x2="-34.24644" y2="2128.91429" gradientTransform="translate(1030.33336 -1628.15027) rotate(13.25595)" xlink:href="#White_Black"/><linearGradient id="linear-gradient-11" x1="-304.52947" y1="1987.68566" x2="-238.87955" y2="2026.68073" gradientTransform="translate(1030.33336 -1628.15027) rotate(13.25595)" xlink:href="#linear-gradient"/><clipPath id="clip-path"><path class="cls-1" d="M843.05538,420.49134h-3.91211v233.467h63.58936v-3.91211h3.91211v-233.467H843.05538ZM808.24386,590.17249a69.87276,69.87276,0,0,1-13.92578,6.03223,50.81412,50.81412,0,0,1-15.31592,2.32275q-17.17749,0-26.45655-5.33691a33.37217,33.37217,0,0,1-13.69238-14.15869,52.07917,52.07917,0,0,1-5.106-20.41993q-.69652-11.59937-.69726-24.13769v-117.895h-63.5874v3.91211H665.5505v117.895q0,59.874,21.81445,87.25879,23.67114,30.63611,80.29834,30.636,35.73633,0,59.87549-21.35229v-.4624l-.082-.14893c1.35351-1.05933,2.6914-2.14795,3.99414-3.30078v-.4624l-22.27881-40.38184Zm314.69482-169.68115h-3.91211v22.5581a86.80219,86.80219,0,0,0-27.186-21.20556q-18.10327-8.97437-42.23877-8.978a114.8899,114.8899,0,0,0-46.41455,9.51465,122.48919,122.48919,0,0,0-38.063,25.76318c-.65381.65381-1.27344,1.33594-1.91065,2.00293-.6665.63721-1.34814,1.25586-2.00146,1.90918a122.46592,122.46592,0,0,0-25.76123,38.05908,115.97489,115.97489,0,0,0-9.51319,46.877,114.80936,114.80936,0,0,0,9.51319,46.41845,122.32382,122.32382,0,0,0,25.76123,38.05909,119.09377,119.09377,0,0,0,38.063,25.52807,117.32676,117.32676,0,0,0,46.41455,9.28369q33.41527,0,56.16015-17.63891l.46631-.46241-.38135-.67846c1.29688-.88892,2.57862-1.80249,3.82715-2.77124l.46631-.46241-23.20947-41.31005v-.92871h-.46191q-10.218,5.1123-24.6001,5.10449a61.33637,61.33637,0,0,1-25.06592-5.11963,69.3239,69.3239,0,0,1-20.65283-13.9751,64.77506,64.77506,0,0,1-14.15869-20.49658,60.72033,60.72033,0,0,1-5.104-24.69141,63.506,63.506,0,0,1,5.104-25.3833,61.86459,61.86459,0,0,1,11.21093-17.46387,71.69477,71.69477,0,0,1,19.68848-12.86279,61.34087,61.34087,0,0,1,25.06592-5.127,64.53073,64.53073,0,0,1,24.833,4.88623,65.27832,65.27832,0,0,1,35.041,34.20068,61.88076,61.88076,0,0,1,5.10791,25.13086V652.56775h60.80225v-3.91211h3.91211V416.57923h-60.80225Zm243.44971,113.5166a96.94344,96.94344,0,0,0-22.28076-12.76416q-12.76758-5.32911-28.08008-10.44092c-.92871-.30566-1.937-.61914-3.01856-.92822a11.2184,11.2184,0,0,0-3.01806-.46631q-6.95655-2.31519-14.15479-5.104a127.864,127.864,0,0,1-12.99707-5.80323,42.19243,42.19243,0,0,1-9.51269-6.49853,10.327,10.327,0,0,1-3.71338-7.65625c0-3.46485.67724-6.17481,2.02685-8.16211a18.857,18.857,0,0,1,2.18311-1.38916,21.256,21.256,0,0,1,7.65625-2.31885,68.99667,68.99667,0,0,1,7.42676-.4624,89.71755,89.71755,0,0,1,33.42138,6.26562,77.18275,77.18275,0,0,1,26.45655,16.94l.4624.46582,2.76269-5.02735c.22559.21924.46436.42725.687.64942l.4624.46582,28.313-51.52246v-.92823a155.2299,155.2299,0,0,0-42.23877-19.72656,158.263,158.263,0,0,0-45.02-6.73,108.36586,108.36586,0,0,0-34.81153,5.32373,78.582,78.582,0,0,0-26.92285,15.04883,68.91378,68.91378,0,0,0-5.48144,5.356,66.47634,66.47634,0,0,0-15.60352,21.706,71.38116,71.38116,0,0,0-6.03223,29.63135v.9209q0,18.52661,7.19385,30.33007a62.89161,62.89161,0,0,0,18.334,19.44239,94.07947,94.07947,0,0,0,25.062,12.042q13.92553,4.39526,27.85107,8.09912a16.711,16.711,0,0,0,4.40869,1.16162,17.546,17.546,0,0,1,4.4087,1.15381,157.91432,157.91432,0,0,1,20.88671,7.874q8.81324,4.166,8.82129,12.49659a15.77756,15.77756,0,0,1-2.47265,8.94873q-6.8379,4.71972-21,4.73242a93.37254,93.37254,0,0,1-37.59717-7.65625,94.69823,94.69823,0,0,1-31.56445-22.51416l-.46241-.46192-3.03711,4.79395c-.13574-.14307-.27734-.27539-.41259-.41992l-.46241-.46192-31.56445,49.82227-.46191.47363.46191.4624a178.36743,178.36743,0,0,0,47.80908,25.98633,153.47994,153.47994,0,0,0,51.98487,9.12329q42.22924,0,65.67675-19.95776a67.25225,67.25225,0,0,0,5.95508-5.751q21.37281-19.71533,21.39942-53.397v-.4624q0-14.384-5.33692-24.833A53.32214,53.32214,0,0,0,1366.38839,534.00794Zm231.84326-113.5166h-3.91211v22.5581a86.804,86.804,0,0,0-27.18652-21.20556q-18.10254-8.97437-42.23877-8.978a114.88935,114.88935,0,0,0-46.41407,9.51465,122.48927,122.48927,0,0,0-38.063,25.76318c-.6543.65381-1.27344,1.33594-1.91065,2.00293-.667.63721-1.34863,1.25586-2.00146,1.90918a122.46592,122.46592,0,0,0-25.76123,38.05908,115.9341,115.9341,0,0,0-9.51319,46.877,114.76864,114.76864,0,0,0,9.51319,46.41845,122.32382,122.32382,0,0,0,25.76123,38.05909,119.097,119.097,0,0,0,38.0625,25.52807,117.33023,117.33023,0,0,0,46.41455,9.28369q33.416,0,56.16064-17.63891l.46582-.46241-.38086-.67846c1.29688-.88892,2.57862-1.80249,3.82715-2.77124l.46582-.46241-23.209-41.31005v-.92871h-.4624q-10.21729,5.1123-24.59961,5.10449a61.33471,61.33471,0,0,1-25.06592-5.11963,69.33236,69.33236,0,0,1-20.65332-13.9751,64.78178,64.78178,0,0,1-14.15821-20.49658,60.71281,60.71281,0,0,1-5.10449-24.69141,63.49816,63.49816,0,0,1,5.10449-25.3833,61.87389,61.87389,0,0,1,11.21094-17.46435,71.70407,71.70407,0,0,1,19.68848-12.86231,61.33921,61.33921,0,0,1,25.06592-5.127,64.53064,64.53064,0,0,1,24.833,4.88623,65.2783,65.2783,0,0,1,35.041,34.20068,61.88076,61.88076,0,0,1,5.10791,25.13086V652.56775h60.80225v-3.91211h3.91211V416.57923h-60.80225Zm282.2002,5.36963a119.069,119.069,0,0,0-53.84131-12.99512q-41.25513,0-65.24024,25.73633a81.61735,81.61735,0,0,0-6.70263,7.07031V416.57923h-63.125v3.91211h-3.91211V652.56775h63.125v-3.91211h3.91211V521.01478a59.49992,59.49992,0,0,1,7.65625-20.89014,69.28592,69.28592,0,0,1,8.58251-11.5332c.54786-.50489,1.09864-1.00684,1.66407-1.49463a61.66066,61.66066,0,0,1,19.02929-11.14014,66.60969,66.60969,0,0,1,55.69825,4.875l.46631.46191,2.6875-4.79492c.25244.14112.50683.27588.7583.4209l.4663.46191,23.67139-42.23681,5.57031-9.28369ZM592.64425,368.86976A167.23209,167.23209,0,0,0,539.73409,333.13a163.09725,163.09725,0,0,0-65.21-13.1001q-34.81494,0-64.29,13a161.36925,161.36925,0,0,0-51.27,35.48975c9.56006,15.93994,23.22022,32.98,39.89014,52.54a97.71343,97.71343,0,0,1,7.42969-9.64991c.85009-.98,1.73-1.91992,2.62011-2.85009A92.06843,92.06843,0,0,1,432.31417,392.63a87.48106,87.48106,0,0,1,38.29-8.34033,91.89507,91.89507,0,0,1,38.98974,8.3501,103.3786,103.3786,0,0,1,31.8003,22.75,106.65268,106.65268,0,0,1,21.57959,33.87988,109.04486,109.04486,0,0,1,7.89013,41.31006,101.543,101.543,0,0,1-1.85986,19.96,105.35254,105.35254,0,0,1-5.56982,18.56006l66.83984,9.29c.47022-1.40967.91016-2.83985,1.33984-4.27l2.57032.35009a140.77352,140.77352,0,0,0,5.56982-23.20019,164.67449,164.67449,0,0,0-11.37012-89.3501A171.50565,171.50565,0,0,0,592.64425,368.86976Zm-4.87012,187.6499q-15.79467-15.53981-32.26025-32.02-16.48462-16.47-31.79-31.79981-15.3296-15.31494-28.08985-28.31005-12.76464-12.9895-21.10986-21.3501v7.83008l-3.91992-3.91993v82.62012l51.00976,51a103.46969,103.46969,0,0,1-19.93994,8.66992,89.48688,89.48688,0,0,1-27.1499,4.17969A87.63373,87.63373,0,0,1,436.22384,585.09a90.77263,90.77263,0,0,1-29.93994-22.93018,110.37988,110.37988,0,0,1-19.71973-34.04,119.12664,119.12664,0,0,1-7.2002-41.69,117.78056,117.78056,0,0,1,7.2002-41.21q1.16967-3.15014,2.46973-6.16015c-18.33985-18-34.96-34.07959-50.83985-46.02A168.02622,168.02622,0,0,0,320.91427,425.36a177.20652,177.20652,0,0,0,0,129.73975,166.13455,166.13455,0,0,0,34.11963,52.91015,159.25741,159.25741,0,0,0,51.29,35.74q29.46021,13.00488,64.28028,12.99a165.43674,165.43674,0,0,0,51.29-7.89013A173.08578,173.08578,0,0,0,567.154,626.56995l70.08008,70.08984V688.84l3.91992,3.90991v-83.55q-9.75-9.75-23.68017-23.43994Q603.55415,572.07972,587.77413,556.51966Z"/></clipPath><linearGradient id="linear-gradient-12" x1="180.25475" y1="510.30519" x2="1508.73536" y2="510.30519" xlink:href="#linear-gradient"/><clipPath id="clip-path-2"><path class="cls-1" d="M568.8193,527.05384l58.73347,8.15663a139.77674,139.77674,0,0,0,4.42788-19.47658,159.03809,159.03809,0,0,0,1.81089-24.0038,157.43089,157.43089,0,0,0-12.90352-63.19,168.48779,168.48779,0,0,0-34.92834-51.84331A164.04921,164.04921,0,0,0,534.273,341.78944a159.96725,159.96725,0,0,0-63.66565-12.77553c-22.5463,0-43.64275,4.25978-62.70672,12.66474A157.96454,157.96454,0,0,0,357.84337,376.33a159.72274,159.72274,0,0,0-33.297,51.65612,173.27474,173.27474,0,0,0-.00573,126.785A162.945,162.945,0,0,0,357.85674,606.454a156.0902,156.0902,0,0,0,50.04389,34.86912c19.04869,8.40114,40.14705,12.66092,62.70672,12.66092a162.42232,162.42232,0,0,0,50.084-7.69818,170.23706,170.23706,0,0,0,44.24065-21.7803l2.682-1.84909,65.71341,65.71531V615.88662q-9.40115-9.38682-22.50428-22.26933-13.92263-13.6848-29.70962-29.24543-15.79368-15.553-32.27886-32.04582l-31.79176-31.79367q-15.33237-15.32949-28.10695-28.34-8.10027-8.235-14.41641-14.61317v71.52238l54.27884,54.27694-4.09742,2.62464a108.27628,108.27628,0,0,1-25.7612,12.03437,93.9445,93.9445,0,0,1-28.33235,4.35912,91.85279,91.85279,0,0,1-39.98086-8.71442,94.9345,94.9345,0,0,1-31.21678-23.90447,114.84375,114.84375,0,0,1-20.42787-35.23588,123.50881,123.50881,0,0,1-7.43839-43.04485,122.15866,122.15866,0,0,1,7.43839-42.57111,111.8895,111.8895,0,0,1,20.447-35.02194,96.37994,96.37994,0,0,1,31.19768-23.65232,91.80913,91.80913,0,0,1,39.98086-8.722,96.24583,96.24583,0,0,1,40.62843,8.71441,107.65323,107.65323,0,0,1,32.98755,23.59883,111.13453,111.13453,0,0,1,22.37629,35.11363,113.42339,113.42339,0,0,1,8.17765,42.7736,106.53972,106.53972,0,0,1-1.93123,20.722A108.61136,108.61136,0,0,1,568.8193,527.05384ZM843.05591,651.1989h55.765V425.55632h-55.765ZM791.57172,605.006a54.98509,54.98509,0,0,1-16.48136,2.49857c-12.26742,0-21.56063-1.91786-28.40876-5.86055A37.3412,37.3412,0,0,1,731.44,585.84271a56.18919,56.18919,0,0,1-5.50907-21.93312c-.468-7.78223-.70487-15.98471-.70487-24.37057V425.55632H669.463V539.539c0,38.83091,7.05252,67.36957,20.96273,84.82132,14.96274,19.36579,40.93788,29.16139,77.23775,29.16139,21.65423,0,40.17-6.21967,55.08305-18.49091l-19.24927-34.892A74.92753,74.92753,0,0,1,791.57172,605.006ZM1122.941,464.47892l-7.022-9.192a84.71011,84.71011,0,0,0-29.72681-24.87486c-11.47277-5.6848-25.10026-8.56923-40.50044-8.56923a111.48621,111.48621,0,0,0-44.85192,9.192,117.52985,117.52985,0,0,0-61.80319,61.79555,112.64176,112.64176,0,0,0-9.18623,45.31419,111.4768,111.4768,0,0,0,9.18623,44.85573,119.01,119.01,0,0,0,24.94363,36.85575,115.73034,115.73034,0,0,0,36.829,24.6953,113.9983,113.9983,0,0,0,44.88248,8.97038c20.22539,0,37.56253-5.10792,51.57971-15.18623l-20.33236-36.191a61.64368,61.64368,0,0,1-22.89206,3.96561,65.51154,65.51154,0,0,1-26.64754-5.45176,73.61106,73.61106,0,0,1-21.807-14.75835,69.05893,69.05893,0,0,1-15.00668-21.723,64.91457,64.91457,0,0,1-5.43266-26.26168,67.77715,67.77715,0,0,1,5.4212-26.93025,65.66071,65.66071,0,0,1,15.05634-21.78413,75.93644,75.93644,0,0,1,21.76884-14.48709,65.532,65.532,0,0,1,26.64754-5.4594,68.67882,68.67882,0,0,1,26.32281,5.18051,69.1828,69.1828,0,0,1,37.13081,36.24447,66.03436,66.03436,0,0,1,5.4403,26.70485v112.424h52.978V425.55632h-52.978Zm237.12682,77.6771a93.43594,93.43594,0,0,0-21.37916-12.23685c-8.3935-3.50334-17.74593-6.98376-27.79749-10.33428-.88252-.29418-1.84145-.59217-2.86915-.88634a7.44052,7.44052,0,0,0-1.94078-.31328h-.63419l-.59981-.19866c-4.65711-1.5511-9.4785-3.2894-14.33428-5.169a133.18807,133.18807,0,0,1-13.39445-5.9828,46.30294,46.30294,0,0,1-10.38012-7.11748,14.10181,14.10181,0,0,1-4.94746-10.50619c0-4.58071,1.05444-8.27125,3.12893-10.9723a21.72465,21.72465,0,0,1,7.06017-5.94077,25.29878,25.29878,0,0,1,9.06589-2.75836,73.89774,73.89774,0,0,1,7.86246-.48519,94.04447,94.04447,0,0,1,34.8653,6.54058,83.42205,83.42205,0,0,1,24.48517,14.72014l24.50046-44.58448a152.16133,152.16133,0,0,0-38.5482-17.5167,155.10332,155.10332,0,0,0-43.90827-6.57115,104.923,104.923,0,0,0-33.55871,5.11938,75.05139,75.05139,0,0,0-25.60074,14.28843,63.0198,63.0198,0,0,0-16.17955,21.80323,67.85145,67.85145,0,0,0-5.68863,28.03054v.92072c0,11.5721,2.22732,21.09263,6.62082,28.29415a59.24449,59.24449,0,0,0,17.20724,18.25022A90.53128,90.53128,0,0,0,1257.13,550.08725c9.28366,2.93409,18.59789,5.639,27.67906,8.04966l.45845.15281a12.86079,12.86079,0,0,0,3.37345.90163,21.54273,21.54273,0,0,1,5.41356,1.4021,159.33106,159.33106,0,0,1,21.12319,7.97707c9.14612,4.32091,11.064,11.106,11.064,16.03437,0,9.81088-5.42884,21.50523-31.297,21.50523a96.43709,96.43709,0,0,1-68.96269-28.27887L1198.601,621.05184a174.76367,174.76367,0,0,0,44.28267,23.57591,150.24977,150.24977,0,0,0,50.66662,8.894c27.07161,0,48.31323-6.39923,63.14034-19.02577,14.85-12.64182,22.06684-29.73445,22.06684-52.25592v-.46228c0-8.91689-1.65043-16.67238-4.90926-23.05251A49.6448,49.6448,0,0,0,1360.06786,542.156Zm238.166-77.6771-7.022-9.192a84.71011,84.71011,0,0,0-29.72681-24.87486c-11.47277-5.6848-25.10027-8.56923-40.50044-8.56923a111.48621,111.48621,0,0,0-44.85192,9.192,117.50527,117.50527,0,0,0-61.79937,61.79555,112.58406,112.58406,0,0,0-9.18815,45.31419,111.3878,111.3878,0,0,0,9.18815,44.85191,118.93894,118.93894,0,0,0,24.9398,36.85957,115.73038,115.73038,0,0,0,36.829,24.6953,113.99826,113.99826,0,0,0,44.88248,8.97038c20.22538,0,37.56252-5.10792,51.5797-15.18623l-20.33236-36.191a61.64362,61.64362,0,0,1-22.89205,3.96561,65.51151,65.51151,0,0,1-26.64754-5.45176,73.61111,73.61111,0,0,1-21.807-14.75835,69.05907,69.05907,0,0,1-15.00667-21.723,64.91457,64.91457,0,0,1-5.43266-26.26168,67.77715,67.77715,0,0,1,5.4212-26.93025,65.66071,65.66071,0,0,1,15.05634-21.78413,75.9363,75.9363,0,0,1,21.76884-14.48709,65.532,65.532,0,0,1,26.64754-5.4594,68.67881,68.67881,0,0,1,26.3228,5.18051,69.18277,69.18277,0,0,1,37.13082,36.24447,66.03453,66.03453,0,0,1,5.4403,26.70485v112.424h52.978V425.55632h-52.978Zm224.44679-42.63606c-30.51382,0-53.00855,10.55586-68.77549,32.27122l-7.07927,9.74593V425.55632h-55.30081V649.80827h55.30081l.05349-124.36665a63.63753,63.63753,0,0,1,8.15281-22.254,72.64173,72.64173,0,0,1,14.96465-17.90257,65.87609,65.87609,0,0,1,20.2292-11.84335,70.55109,70.55109,0,0,1,56.08782,3.56065l25.00858-44.23683A115.0599,115.0599,0,0,0,1822.68062,421.84286Z"/></clipPath><linearGradient id="linear-gradient-18" x1="1040.78105" y1="625.0899" x2="1031.06819" y2="482.63454" gradientTransform="translate(3.83869 -11.83511) rotate(0.66587)" gradientUnits="userSpaceOnUse"><stop offset="0" stop-color="#fff"/><stop offset="1" stop-color="#fff" stop-opacity="0"/></linearGradient></defs><g class="cls-2"><g id="Layer_1" data-name="Layer 1"><path class="cls-3" d="M478.82662,719.80357l31.78221,69.50137,31.94266-69.50137h58.75066V826.86746H569.199l.80229-80.09926h-5.45749l-40.29032,80.09926h-27.127L456.83619,746.7682h-5.77841l.8023,80.09926H419.755V719.80357Z"/><path class="cls-3" d="M774.54364,808.728H703.75478l-9.148,18.13943H657.36514l56.6628-107.06389h50.72392l56.021,107.06389H783.69358Zm-32.10312-64.04578h-6.42025l-20.70676,40.61123h47.83377Z"/><path class="cls-3" d="M876.99054,719.80357h78.81368c36.92069,0,36.92069,0,43.82422,4.17191,8.18528,4.97421,10.596,12.0382,10.596,30.659,0,15.893-1.60458,21.99043-7.38681,26.32662-3.04871,2.40688-6.10124,3.53009-12.51957,4.49284,16.53293,1.9255,19.425,6.74307,18.78317,31.46129v9.95223H976.99236V821.2476c0-12.03819-.64184-15.88919-3.20917-18.617-2.24642-2.57116-4.65329-2.89207-18.13943-2.89207H909.577v27.12891H876.99054Zm78.49276,53.1308c16.37439-.32092,16.37439-.32092,18.62081-1.9255,2.56733-1.6084,3.5339-4.81757,3.5339-11.56064,0-7.22062-1.28749-10.27315-4.65711-11.71728-2.24642-.96275-2.72779-.96275-17.4976-1.12321H909.577v26.32663Z"/><path class="cls-3" d="M1105.445,719.80357v38.84237h17.81851l42.37628-39.48421h49.92163l-61.95982,53.13081,67.09449,54.57492h-49.44026l-47.99232-40.93215H1105.445v40.93215h-32.5845V719.80357Z"/><path class="cls-3" d="M1394.89264,719.80357v25.19959h-86.35713v15.5721h82.02476v23.595h-82.02476v17.01622h86.999v25.681H1276.43239V719.80357Z"/><path class="cls-3" d="M1579.20193,719.80357v27.28555h-47.67522v79.77834h-34.18908V747.08912h-47.67522V719.80357Z"/><path class="cls-3" d="M1668.63452,791.39471c0,6.41834.64183,8.50429,3.213,10.1127,3.04871,1.9255,6.57879,2.24641,29.53579,2.24641,34.99137,0,34.99137,0,34.99137-9.47086,0-6.42215-2.40687-8.02673-12.84048-8.18719l-25.68479-.96275-17.33332-.80229-8.66857-.32092c-26.48708-.80229-33.872-7.54536-33.872-31.14037,0-20.38585,5.78032-29.53579,20.5463-32.745,6.2617-1.28748,21.0315-1.92932,46.71247-1.92932,31.14037,0,42.37628,1.44795,49.92164,6.58261,6.41833,4.33238,8.98948,11.07545,8.98948,23.75547,0,.64184,0,2.89207-.16046,4.978h-31.46129c-.32091-5.94078-.80229-7.3849-3.213-8.829-2.72779-1.60459-6.73925-1.9255-29.85671-1.9255-27.60647,0-29.85288.64183-29.85288,8.50811,0,4.01145,1.44412,6.09741,4.81374,6.8997,2.88825.80229,11.71728,1.28367,34.34954,1.92932,35.31611,1.12321,42.21582,1.9255,49.11935,6.25788,7.3849,4.81757,10.11269,12.03819,10.11269,26.96845,0,18.62081-4.49283,27.76693-15.56827,31.94267-6.42216,2.40687-19.90448,3.20916-51.84714,3.20916-33.23015,0-46.23109-1.44412-53.77646-6.25787-7.38108-4.65711-9.79177-10.91881-9.79177-25.68479v-5.13467Z"/><path class="cls-4" d="M478.82662,719.80357l31.78221,69.50137,31.94266-69.50137h58.75066V826.86746H569.199l.80229-80.09926h-5.45749l-40.29032,80.09926h-27.127L456.83619,746.7682h-5.77841l.8023,80.09926H419.755V719.80357Z"/><path class="cls-4" d="M774.54364,808.728H703.75478l-9.148,18.13943H657.36514l56.6628-107.06389h50.72392l56.021,107.06389H783.69358Zm-32.10312-64.04578h-6.42025l-20.70676,40.61123h47.83377Z"/><path class="cls-4" d="M876.99054,719.80357h78.81368c36.92069,0,36.92069,0,43.82422,4.17191,8.18528,4.97421,10.596,12.0382,10.596,30.659,0,15.893-1.60458,21.99043-7.38681,26.32662-3.04871,2.40688-6.10124,3.53009-12.51957,4.49284,16.53293,1.9255,19.425,6.74307,18.78317,31.46129v9.95223H976.99236V821.2476c0-12.03819-.64184-15.88919-3.20917-18.617-2.24642-2.57116-4.65329-2.89207-18.13943-2.89207H909.577v27.12891H876.99054Zm78.49276,53.1308c16.37439-.32092,16.37439-.32092,18.62081-1.9255,2.56733-1.6084,3.5339-4.81757,3.5339-11.56064,0-7.22062-1.28749-10.27315-4.65711-11.71728-2.24642-.96275-2.72779-.96275-17.4976-1.12321H909.577v26.32663Z"/><path class="cls-4" d="M1105.445,719.80357v38.84237h17.81851l42.37628-39.48421h49.92163l-61.95982,53.13081,67.09449,54.57492h-49.44026l-47.99232-40.93215H1105.445v40.93215h-32.5845V719.80357Z"/><path class="cls-4" d="M1394.89264,719.80357v25.19959h-86.35713v15.5721h82.02476v23.595h-82.02476v17.01622h86.999v25.681H1276.43239V719.80357Z"/><path class="cls-4" d="M1579.20193,719.80357v27.28555h-47.67522v79.77834h-34.18908V747.08912h-47.67522V719.80357Z"/><path class="cls-4" d="M1668.63452,791.39471c0,6.41834.64183,8.50429,3.213,10.1127,3.04871,1.9255,6.57879,2.24641,29.53579,2.24641,34.99137,0,34.99137,0,34.99137-9.47086,0-6.42215-2.40687-8.02673-12.84048-8.18719l-25.68479-.96275-17.33332-.80229-8.66857-.32092c-26.48708-.80229-33.872-7.54536-33.872-31.14037,0-20.38585,5.78032-29.53579,20.5463-32.745,6.2617-1.28748,21.0315-1.92932,46.71247-1.92932,31.14037,0,42.37628,1.44795,49.92164,6.58261,6.41833,4.33238,8.98948,11.07545,8.98948,23.75547,0,.64184,0,2.89207-.16046,4.978h-31.46129c-.32091-5.94078-.80229-7.3849-3.213-8.829-2.72779-1.60459-6.73925-1.9255-29.85671-1.9255-27.60647,0-29.85288.64183-29.85288,8.50811,0,4.01145,1.44412,6.09741,4.81374,6.8997,2.88825.80229,11.71728,1.28367,34.34954,1.92932,35.31611,1.12321,42.21582,1.9255,49.11935,6.25788,7.3849,4.81757,10.11269,12.03819,10.11269,26.96845,0,18.62081-4.49283,27.76693-15.56827,31.94267-6.42216,2.40687-19.90448,3.20916-51.84714,3.20916-33.23015,0-46.23109-1.44412-53.77646-6.25787-7.38108-4.65711-9.79177-10.91881-9.79177-25.68479v-5.13467Z"/><path class="cls-5" d="M218.79415,481.4596a300.995,300.995,0,0,0,10.6001,174.02026,299.859,299.859,0,0,1,12.29-266.59008,98.29741,98.29741,0,0,1,25.23-13.77A301.57514,301.57514,0,0,0,218.79415,481.4596Z"/><path class="cls-6" d="M733.424,343.48987a302.53217,302.53217,0,0,0-383.48974-47.27c4.5498-9.93017,11.71972-19.93994,21.58984-30.37011A299.29664,299.29664,0,0,1,733.424,343.48987Z"/><path class="cls-7" d="M286.71407,371.59c.6499,0,1.29.00977,1.93018.04a289.39755,289.39755,0,0,0-56,115.06982c-.89014,3.79-1.68994,7.56006-2.43994,11.31983q1.66479-10.72485,4.1997-21.46973a281.4372,281.4372,0,0,1,48.97022-104.8501C284.48409,371.61976,285.60421,371.59,286.71407,371.59Z"/><path class="cls-8" d="M642.25411,291.84974a291.01365,291.01365,0,0,0-298.25,26.91015,60.181,60.181,0,0,1,.91992-7.16015,282.971,282.971,0,0,1,297.33008-19.75Z"/><circle class="cls-9" cx="521.67314" cy="188.34008" r="19.35322"/><circle class="cls-10" cx="640.09743" cy="332.86803" r="22.69576"/><circle class="cls-11" cx="297.21413" cy="194.20063" r="16.63155"/><circle class="cls-12" cx="138.95946" cy="300.15782" r="22.85903"/><circle class="cls-13" cx="164.66651" cy="474.41312" r="16.10984"/><path class="cls-14" d="M388.98443,425.187c-64.75209-63.56759-95.15479-94.18291-163.84141-34.88027,59.89428-61.036,63.47847-68.35957,14.07318-126.45287-3.01-3.56312-6.20817-7.28335-9.61773-11.2223,64.69356,63.49741,69.01778,63.63352,137.65631,4.37594a1.04612,1.04612,0,0,1-.10046.10778q-3.18748,3.24856-6.09352,6.33811a2.31318,2.31318,0,0,1-.32348.337C304.859,323.48154,331.8035,358.97169,388.98443,425.187Z"/><path class="cls-15" d="M367.25478,257.00753a1.04612,1.04612,0,0,1-.10046.10778c-.53288.588-2.72177,2.94518-6.09352,6.33811a2.31318,2.31318,0,0,1-.32348.337c-13.33313,13.47663-44.08566,42.15249-63.62312,41.79352-17.91422-.31454-43.94471-26.27531-57.898-41.73-5.51881-6.14451-9.15322-10.64345-9.61773-11.2223C294.292,316.129,298.61625,316.26511,367.25478,257.00753Z"/><g class="cls-16"><path class="cls-3" d="M491.72632,468.30045q12.7593,12.99712,28.08212,28.31325,15.31516,15.31232,31.79366,31.79367Q568.072,544.88873,583.86,560.43408q15.77649,15.553,29.7058,29.24162,13.92549,13.69626,23.67333,23.43837v83.54912l-70.0878-70.08972a173.37885,173.37885,0,0,1-45.255,22.28078,165.57555,165.57555,0,0,1-51.28936,7.8892q-34.81084,0-64.28456-12.9933A159.2792,159.2792,0,0,1,355.033,608.01a166.08976,166.08976,0,0,1-34.11458-52.913q-12.30372-30.16617-12.2999-64.9818a170.96924,170.96924,0,0,1,12.2999-64.75066,162.92562,162.92562,0,0,1,34.11458-52.913,161.22159,161.22159,0,0,1,51.28935-35.50713q29.46989-12.9914,64.28456-12.99713a163.06966,163.06966,0,0,1,65.21484,13.09837,167.07293,167.07293,0,0,1,52.913,35.74018A171.60625,171.60625,0,0,1,624.475,425.82867a160.55735,160.55735,0,0,1,13.22826,64.74874,162.23838,162.23838,0,0,1-1.85673,24.59979,141.59486,141.59486,0,0,1-5.5702,23.20915l-66.83852-9.28366a105.88377,105.88377,0,0,0,5.57019-18.56732,102.11,102.11,0,0,0,1.85673-19.958,109.0813,109.0813,0,0,0-7.89111-41.30846,106.78449,106.78449,0,0,0-21.58355-33.88344,103.30714,103.30714,0,0,0-31.79367-22.74306,91.90232,91.90232,0,0,0-38.98946-8.35529,87.53487,87.53487,0,0,0-38.29222,8.34,92.03711,92.03711,0,0,0-29.93885,22.69339A107.54283,107.54283,0,0,0,382.651,449.13142a117.73218,117.73218,0,0,0-7.19579,41.213A119.07068,119.07068,0,0,0,382.651,532.033a110.51551,110.51551,0,0,0,19.72491,34.04391,90.66865,90.66865,0,0,0,29.93885,22.92261,87.53046,87.53046,0,0,0,38.29222,8.33237,89.64063,89.64063,0,0,0,27.15375-4.17573,103.94932,103.94932,0,0,0,24.83092-11.60267L470.607,529.56878V446.948Q478.96225,455.30333,491.72632,468.30045Z"/><path class="cls-3" d="M805.25994,594.08448l22.27888,40.382v.46227q-24.14038,21.35816-59.87579,21.35242-56.63318,0-80.29792-30.63608-21.82233-27.38106-21.81469-87.25875V420.49152h63.58734V538.38635q0,12.53293.69723,24.13751a52.08977,52.08977,0,0,0,5.106,20.42023,33.372,33.372,0,0,0,13.69244,14.15854q9.27793,5.341,26.45652,5.33715a50.82353,50.82353,0,0,0,15.31613-2.32283,69.873,69.873,0,0,0,13.92549-6.03247Zm97.47269-173.593V653.95835H839.14339V420.49152Z"/><path class="cls-3" d="M1179.82885,420.49152v232.0762h-60.80224V536.23162a61.87655,61.87655,0,0,0-5.10792-25.13082,65.33944,65.33944,0,0,0-59.87387-39.08688,61.34052,61.34052,0,0,0-25.06588,5.127,71.66539,71.66539,0,0,0-20.65328,13.74211,61.41188,61.41188,0,0,0-14.15853,20.49664,63.50282,63.50282,0,0,0-5.10411,25.383,60.7179,60.7179,0,0,0,5.10411,24.69148,64.7811,64.7811,0,0,0,14.15853,20.49664,69.32322,69.32322,0,0,0,20.65328,13.97515,61.33583,61.33583,0,0,0,25.06588,5.11939q14.3782,0,24.59978-5.1041h.46228v.92836L1102.316,638.18l-.46609.46228q-22.745,17.64468-56.16041,17.63895a117.3279,117.3279,0,0,1-46.41447-9.28366,119.0941,119.0941,0,0,1-38.063-25.52815,122.33084,122.33084,0,0,1-25.7612-38.05918,114.80823,114.80823,0,0,1-9.51289-46.4183,115.971,115.971,0,0,1,9.51289-46.87675,121.44519,121.44519,0,0,1,63.8242-63.82229,114.88746,114.88746,0,0,1,46.41447-9.51479q24.12606,0,42.23874,8.978a88.13021,88.13021,0,0,1,31.09835,26.00189V420.49152Z"/><path class="cls-3" d="M1312.11526,514.71493q15.318,5.11175,28.0802,10.44125a96.92388,96.92388,0,0,1,22.28079,12.76408,53.3118,53.3118,0,0,1,14.85385,17.872q5.32952,10.44126,5.33715,24.83284v.46227q0,35.2779-23.44219,55.23586-23.44412,19.95987-65.67712,19.958a153.47979,153.47979,0,0,1-51.98467-9.1232,178.36164,178.36164,0,0,1-47.80893-25.98661l-.46228-.46227.46228-.47373,31.56444-49.82231.46227.46228a94.70254,94.70254,0,0,0,31.56444,22.51382,93.37029,93.37029,0,0,0,37.59691,7.65616q27.38106,0,27.38489-17.59311,0-8.33237-8.82139-12.49665a157.899,157.899,0,0,0-20.88632-7.87391,17.54423,17.54423,0,0,0-4.40879-1.15378,16.72208,16.72208,0,0,1-4.40878-1.16141q-13.92549-3.69627-27.851-8.09932a94.08243,94.08243,0,0,1-25.06206-12.042,62.89391,62.89391,0,0,1-18.33427-19.44219q-7.20343-11.80515-7.19388-30.33044v-.92073a71.38343,71.38343,0,0,1,6.03247-29.6313,66.61179,66.61179,0,0,1,17.17286-23.14993,78.57762,78.57762,0,0,1,26.92261-15.0487,108.37042,108.37042,0,0,1,34.81181-5.32377,158.26674,158.26674,0,0,1,45.02,6.72969,155.23123,155.23123,0,0,1,42.23874,19.72682v.92837l-28.31325,51.5224-.46228-.4661a77.179,77.179,0,0,0-26.45651-16.93981,89.71811,89.71811,0,0,0-33.42118-6.26551,68.99823,68.99823,0,0,0-7.42692.46227,21.24916,21.24916,0,0,0-7.65616,2.319,17.78069,17.78069,0,0,0-5.80324,4.87488q-2.32665,3.02578-2.319,8.58834a10.32689,10.32689,0,0,0,3.71346,7.65615,42.17882,42.17882,0,0,0,9.51288,6.49857,127.75232,127.75232,0,0,0,12.99713,5.80324q7.192,2.7851,14.15471,5.1041a11.22439,11.22439,0,0,1,3.01815.46609C1310.1783,514.096,1311.18689,514.40929,1312.11526,514.71493Z"/><path class="cls-3" d="M1655.12163,420.49152v232.0762H1594.3194V536.23162a61.87655,61.87655,0,0,0-5.10793-25.13082,65.33942,65.33942,0,0,0-59.87387-39.08688,61.34058,61.34058,0,0,0-25.06588,5.127,71.66534,71.66534,0,0,0-20.65327,13.74211,61.412,61.412,0,0,0-14.15854,20.49664,63.50281,63.50281,0,0,0-5.1041,25.383,60.71789,60.71789,0,0,0,5.1041,24.69148,64.78129,64.78129,0,0,0,14.15854,20.49664,69.32317,69.32317,0,0,0,20.65327,13.97515,61.33589,61.33589,0,0,0,25.06588,5.11939q14.37822,0,24.59979-5.1041h.46227v.92836L1577.60881,638.18l-.46609.46228q-22.745,17.64468-56.16041,17.63895a117.328,117.328,0,0,1-46.41448-9.28366,119.09421,119.09421,0,0,1-38.063-25.52815,122.33118,122.33118,0,0,1-25.7612-38.05918,114.77651,114.77651,0,0,1-9.51288-46.4183,115.93925,115.93925,0,0,1,9.51288-46.87675,121.44519,121.44519,0,0,1,63.8242-63.82229,114.88751,114.88751,0,0,1,46.41448-9.51479q24.126,0,42.23874,8.978A88.13021,88.13021,0,0,1,1594.3194,451.758V420.49152Z"/><path class="cls-3" d="M1876.98581,429.77327l-5.5702,9.28366-23.67142,42.23683-.46609-.46228a66.6118,66.6118,0,0,0-55.69814-4.87487,61.65994,61.65994,0,0,0-19.02959,11.14039,68.34748,68.34748,0,0,0-14.15853,16.93981,59.49353,59.49353,0,0,0-7.65616,20.89014V652.56772h-63.12506V420.49152h63.12506v30.17q24.596-33.87676,71.94263-33.88344a119.06481,119.06481,0,0,1,53.8414,12.99521Z"/><path class="cls-17" d="M495.63845,464.38833q12.7593,12.99713,28.08211,28.31325,15.31518,15.3123,31.79367,31.79366,16.46989,16.48137,32.25785,32.02672,15.77649,15.553,29.7058,29.24161,13.92549,13.69628,23.67333,23.43838v83.54911L571.0634,622.66134a173.37857,173.37857,0,0,1-45.255,22.28079,165.57544,165.57544,0,0,1-51.28935,7.8892q-34.81086,0-64.28456-12.99331a159.279,159.279,0,0,1-51.28936-35.74017,166.09,166.09,0,0,1-34.11458-52.913q-12.3037-30.16616-12.29989-64.98179a170.96935,170.96935,0,0,1,12.29989-64.75066,162.92583,162.92583,0,0,1,34.11458-52.913,161.22152,161.22152,0,0,1,51.28936-35.50713q29.46988-12.9914,64.28456-12.99712a163.06983,163.06983,0,0,1,65.21484,13.09836,167.07349,167.07349,0,0,1,52.913,35.74018,171.606,171.606,0,0,1,35.74017,53.04293,160.55723,160.55723,0,0,1,13.22826,64.74875,162.23848,162.23848,0,0,1-1.85673,24.59979,141.59371,141.59371,0,0,1-5.57019,23.20914l-66.83853-9.28366a105.88372,105.88372,0,0,0,5.5702-18.56731,102.1101,102.1101,0,0,0,1.85673-19.958,109.08126,109.08126,0,0,0-7.89111-41.30846,106.78443,106.78443,0,0,0-21.58355-33.88345,103.30723,103.30723,0,0,0-31.79367-22.74305,91.90221,91.90221,0,0,0-38.98946-8.3553,87.53491,87.53491,0,0,0-38.29223,8.34A92.03731,92.03731,0,0,0,406.288,411.40843a107.54245,107.54245,0,0,0-19.72491,33.81086,117.73223,117.73223,0,0,0-7.1958,41.21295,119.07074,119.07074,0,0,0,7.1958,41.6886,110.51506,110.51506,0,0,0,19.72491,34.0439,90.66887,90.66887,0,0,0,29.93884,22.92262,87.53064,87.53064,0,0,0,38.29223,8.33237,89.64068,89.64068,0,0,0,27.15375-4.17574,103.94985,103.94985,0,0,0,24.83092-11.60266l-51.98467-51.98467V443.03591Q482.87438,451.39121,495.63845,464.38833Z"/><path class="cls-17" d="M809.17207,590.17236l22.27887,40.382v.46228q-24.14037,21.35814-59.87578,21.35241-56.63319,0-80.29792-30.63607-21.82233-27.38106-21.81469-87.25876V416.57939h63.58734V534.47422q0,12.533.69723,24.13752a52.08964,52.08964,0,0,0,5.106,20.42023,33.37183,33.37183,0,0,0,13.69244,14.15853q9.27794,5.341,26.45652,5.33715a50.82383,50.82383,0,0,0,15.31613-2.32282,69.87383,69.87383,0,0,0,13.92548-6.03247Zm97.47269-173.593V650.04623H843.05552V416.57939Z"/><path class="cls-17" d="M1183.741,416.57939v232.0762h-60.80223V532.3195a61.8766,61.8766,0,0,0-5.10793-25.13083,65.33947,65.33947,0,0,0-59.87387-39.08688,61.34059,61.34059,0,0,0-25.06588,5.127,71.66551,71.66551,0,0,0-20.65327,13.7421,61.41225,61.41225,0,0,0-14.15854,20.49664,63.50286,63.50286,0,0,0-5.1041,25.383,60.71788,60.71788,0,0,0,5.1041,24.69147,64.78129,64.78129,0,0,0,14.15854,20.49664,69.323,69.323,0,0,0,20.65327,13.97516,61.33589,61.33589,0,0,0,25.06588,5.11938q14.37822,0,24.59979-5.1041h.46227v.92837l23.20915,41.31037-.46609.46227q-22.745,17.64468-56.16041,17.639a117.32787,117.32787,0,0,1-46.41447-9.28366,119.09392,119.09392,0,0,1-38.063-25.52815,122.33107,122.33107,0,0,1-25.7612-38.05918,114.80836,114.80836,0,0,1-9.51288-46.4183A115.97117,115.97117,0,0,1,939.363,486.203a121.44514,121.44514,0,0,1,63.82421-63.8223,114.88743,114.88743,0,0,1,46.41447-9.51479q24.12606,0,42.23874,8.978a88.13032,88.13032,0,0,1,31.09835,26.00189V416.57939Z"/><path class="cls-17" d="M1316.02739,510.8028q15.318,5.11175,28.0802,10.44125a96.924,96.924,0,0,1,22.28078,12.76408,53.31175,53.31175,0,0,1,14.85386,17.872q5.3295,10.44124,5.33715,24.83283v.46227q0,35.27791-23.4422,55.23587-23.4441,19.95985-65.67711,19.95795a153.47954,153.47954,0,0,1-51.98467-9.1232,178.36181,178.36181,0,0,1-47.80894-25.9866l-.46227-.46227.46227-.47374,31.56444-49.8223.46228.46227a94.70257,94.70257,0,0,0,31.56444,22.51383,93.37045,93.37045,0,0,0,37.59691,7.65615q27.38106,0,27.38488-17.59311,0-8.33236-8.82138-12.49664a157.89765,157.89765,0,0,0-20.88633-7.87392,17.544,17.544,0,0,0-4.40878-1.15377,16.72236,16.72236,0,0,1-4.40878-1.16141q-13.92549-3.69627-27.851-8.09933a94.08241,94.08241,0,0,1-25.06206-12.042,62.89383,62.89383,0,0,1-18.33427-19.4422q-7.20344-11.80515-7.19388-30.33044v-.92073a71.38346,71.38346,0,0,1,6.03247-29.6313,66.61176,66.61176,0,0,1,17.17285-23.14993,78.57748,78.57748,0,0,1,26.92262-15.04869,108.37014,108.37014,0,0,1,34.81181-5.32378,158.26674,158.26674,0,0,1,45.02,6.7297,155.2308,155.2308,0,0,1,42.23874,19.72682v.92836l-28.31325,51.5224-.46227-.46609a77.17887,77.17887,0,0,0-26.45652-16.93981,89.718,89.718,0,0,0-33.42117-6.26552,69.001,69.001,0,0,0-7.42693.46227,21.24906,21.24906,0,0,0-7.65615,2.319,17.78034,17.78034,0,0,0-5.80324,4.87487q-2.32665,3.02578-2.319,8.58834a10.32691,10.32691,0,0,0,3.71347,7.65616,42.17914,42.17914,0,0,0,9.51288,6.49856,127.7521,127.7521,0,0,0,12.99712,5.80324q7.192,2.7851,14.15472,5.1041a11.224,11.224,0,0,1,3.01814.4661C1314.09043,510.18389,1315.099,510.49717,1316.02739,510.8028Z"/><path class="cls-17" d="M1659.03376,416.57939v232.0762h-60.80224V532.3195a61.87659,61.87659,0,0,0-5.10792-25.13083,65.33949,65.33949,0,0,0-59.87387-39.08688,61.34056,61.34056,0,0,0-25.06588,5.127,71.66556,71.66556,0,0,0-20.65328,13.7421,61.41222,61.41222,0,0,0-14.15853,20.49664,63.50286,63.50286,0,0,0-5.1041,25.383,60.71788,60.71788,0,0,0,5.1041,24.69147,64.78126,64.78126,0,0,0,14.15853,20.49664,69.32306,69.32306,0,0,0,20.65328,13.97516,61.33585,61.33585,0,0,0,25.06588,5.11938q14.3782,0,24.59979-5.1041h.46227v.92837l23.20915,41.31037-.4661.46227q-22.745,17.64468-56.1604,17.639a117.32792,117.32792,0,0,1-46.41448-9.28366,119.09377,119.09377,0,0,1-38.063-25.52815,122.33072,122.33072,0,0,1-25.7612-38.05918,114.77648,114.77648,0,0,1-9.51289-46.4183,115.93924,115.93924,0,0,1,9.51289-46.87674,121.44517,121.44517,0,0,1,63.8242-63.8223,114.88748,114.88748,0,0,1,46.41448-9.51479q24.126,0,42.23874,8.978a88.13037,88.13037,0,0,1,31.09834,26.00189V416.57939Z"/><path class="cls-17" d="M1880.89793,425.86114l-5.57019,9.28366-23.67142,42.23683-.4661-.46227a66.61173,66.61173,0,0,0-55.69813-4.87488,61.65982,61.65982,0,0,0-19.02959,11.14039,68.3473,68.3473,0,0,0-14.15854,16.93981,59.49375,59.49375,0,0,0-7.65615,20.89015V648.65559h-63.12506V416.57939h63.12506v30.17q24.596-33.87675,71.94263-33.88344a119.06487,119.06487,0,0,1,53.8414,12.99521Z"/><path class="cls-18" d="M491.72632,468.30045q12.7593,12.99712,28.08212,28.31325,15.31516,15.31232,31.79366,31.79367Q568.072,544.88873,583.86,560.43408q15.77649,15.553,29.7058,29.24162,13.92549,13.69626,23.67333,23.43837v83.54912l-70.0878-70.08972a173.37885,173.37885,0,0,1-45.255,22.28078,165.57555,165.57555,0,0,1-51.28936,7.8892q-34.81084,0-64.28456-12.9933A159.2792,159.2792,0,0,1,355.033,608.01a166.08976,166.08976,0,0,1-34.11458-52.913q-12.30372-30.16617-12.2999-64.9818a170.96924,170.96924,0,0,1,12.2999-64.75066,162.92562,162.92562,0,0,1,34.11458-52.913,161.22159,161.22159,0,0,1,51.28935-35.50713q29.46989-12.9914,64.28456-12.99713a163.06966,163.06966,0,0,1,65.21484,13.09837,167.07293,167.07293,0,0,1,52.913,35.74018A171.60625,171.60625,0,0,1,624.475,425.82867a160.55735,160.55735,0,0,1,13.22826,64.74874,162.23838,162.23838,0,0,1-1.85673,24.59979,141.59486,141.59486,0,0,1-5.5702,23.20915l-66.83852-9.28366a105.88377,105.88377,0,0,0,5.57019-18.56732,102.11,102.11,0,0,0,1.85673-19.958,109.0813,109.0813,0,0,0-7.89111-41.30846,106.78449,106.78449,0,0,0-21.58355-33.88344,103.30714,103.30714,0,0,0-31.79367-22.74306,91.90232,91.90232,0,0,0-38.98946-8.35529,87.53487,87.53487,0,0,0-38.29222,8.34,92.03711,92.03711,0,0,0-29.93885,22.69339A107.54283,107.54283,0,0,0,382.651,449.13142a117.73218,117.73218,0,0,0-7.19579,41.213A119.07068,119.07068,0,0,0,382.651,532.033a110.51551,110.51551,0,0,0,19.72491,34.04391,90.66865,90.66865,0,0,0,29.93885,22.92261,87.53046,87.53046,0,0,0,38.29222,8.33237,89.64063,89.64063,0,0,0,27.15375-4.17573,103.94932,103.94932,0,0,0,24.83092-11.60267L470.607,529.56878V446.948Q478.96225,455.30333,491.72632,468.30045Z"/><path class="cls-18" d="M805.25994,594.08448l22.27888,40.382v.46227q-24.14038,21.35816-59.87579,21.35242-56.63318,0-80.29792-30.63608-21.82233-27.38106-21.81469-87.25875V420.49152h63.58734V538.38635q0,12.53293.69723,24.13751a52.08977,52.08977,0,0,0,5.106,20.42023,33.372,33.372,0,0,0,13.69244,14.15854q9.27793,5.341,26.45652,5.33715a50.82353,50.82353,0,0,0,15.31613-2.32283,69.873,69.873,0,0,0,13.92549-6.03247Zm97.47269-173.593V653.95835H839.14339V420.49152Z"/><path class="cls-18" d="M1179.82885,420.49152v232.0762h-60.80224V536.23162a61.87655,61.87655,0,0,0-5.10792-25.13082,65.33944,65.33944,0,0,0-59.87387-39.08688,61.34052,61.34052,0,0,0-25.06588,5.127,71.66539,71.66539,0,0,0-20.65328,13.74211,61.41188,61.41188,0,0,0-14.15853,20.49664,63.50282,63.50282,0,0,0-5.10411,25.383,60.7179,60.7179,0,0,0,5.10411,24.69148,64.7811,64.7811,0,0,0,14.15853,20.49664,69.32322,69.32322,0,0,0,20.65328,13.97515,61.33583,61.33583,0,0,0,25.06588,5.11939q14.3782,0,24.59978-5.1041h.46228v.92836L1102.316,638.18l-.46609.46228q-22.745,17.64468-56.16041,17.63895a117.3279,117.3279,0,0,1-46.41447-9.28366,119.0941,119.0941,0,0,1-38.063-25.52815,122.33084,122.33084,0,0,1-25.7612-38.05918,114.80823,114.80823,0,0,1-9.51289-46.4183,115.971,115.971,0,0,1,9.51289-46.87675,121.44519,121.44519,0,0,1,63.8242-63.82229,114.88746,114.88746,0,0,1,46.41447-9.51479q24.12606,0,42.23874,8.978a88.13021,88.13021,0,0,1,31.09835,26.00189V420.49152Z"/><path class="cls-18" d="M1312.11526,514.71493q15.318,5.11175,28.0802,10.44125a96.92388,96.92388,0,0,1,22.28079,12.76408,53.3118,53.3118,0,0,1,14.85385,17.872q5.32952,10.44126,5.33715,24.83284v.46227q0,35.2779-23.44219,55.23586-23.44412,19.95987-65.67712,19.958a153.47979,153.47979,0,0,1-51.98467-9.1232,178.36164,178.36164,0,0,1-47.80893-25.98661l-.46228-.46227.46228-.47373,31.56444-49.82231.46227.46228a94.70254,94.70254,0,0,0,31.56444,22.51382,93.37029,93.37029,0,0,0,37.59691,7.65616q27.38106,0,27.38489-17.59311,0-8.33237-8.82139-12.49665a157.899,157.899,0,0,0-20.88632-7.87391,17.54423,17.54423,0,0,0-4.40879-1.15378,16.72208,16.72208,0,0,1-4.40878-1.16141q-13.92549-3.69627-27.851-8.09932a94.08243,94.08243,0,0,1-25.06206-12.042,62.89391,62.89391,0,0,1-18.33427-19.44219q-7.20343-11.80515-7.19388-30.33044v-.92073a71.38343,71.38343,0,0,1,6.03247-29.6313,66.61179,66.61179,0,0,1,17.17286-23.14993,78.57762,78.57762,0,0,1,26.92261-15.0487,108.37042,108.37042,0,0,1,34.81181-5.32377,158.26674,158.26674,0,0,1,45.02,6.72969,155.23123,155.23123,0,0,1,42.23874,19.72682v.92837l-28.31325,51.5224-.46228-.4661a77.179,77.179,0,0,0-26.45651-16.93981,89.71811,89.71811,0,0,0-33.42118-6.26551,68.99823,68.99823,0,0,0-7.42692.46227,21.24916,21.24916,0,0,0-7.65616,2.319,17.78069,17.78069,0,0,0-5.80324,4.87488q-2.32665,3.02578-2.319,8.58834a10.32689,10.32689,0,0,0,3.71346,7.65615,42.17882,42.17882,0,0,0,9.51288,6.49857,127.75232,127.75232,0,0,0,12.99713,5.80324q7.192,2.7851,14.15471,5.1041a11.22439,11.22439,0,0,1,3.01815.46609C1310.1783,514.096,1311.18689,514.40929,1312.11526,514.71493Z"/><path class="cls-18" d="M1655.12163,420.49152v232.0762H1594.3194V536.23162a61.87655,61.87655,0,0,0-5.10793-25.13082,65.33942,65.33942,0,0,0-59.87387-39.08688,61.34058,61.34058,0,0,0-25.06588,5.127,71.66534,71.66534,0,0,0-20.65327,13.74211,61.412,61.412,0,0,0-14.15854,20.49664,63.50281,63.50281,0,0,0-5.1041,25.383,60.71789,60.71789,0,0,0,5.1041,24.69148,64.78129,64.78129,0,0,0,14.15854,20.49664,69.32317,69.32317,0,0,0,20.65327,13.97515,61.33589,61.33589,0,0,0,25.06588,5.11939q14.37822,0,24.59979-5.1041h.46227v.92836L1577.60881,638.18l-.46609.46228q-22.745,17.64468-56.16041,17.63895a117.328,117.328,0,0,1-46.41448-9.28366,119.09421,119.09421,0,0,1-38.063-25.52815,122.33118,122.33118,0,0,1-25.7612-38.05918,114.77651,114.77651,0,0,1-9.51288-46.4183,115.93925,115.93925,0,0,1,9.51288-46.87675,121.44519,121.44519,0,0,1,63.8242-63.82229,114.88751,114.88751,0,0,1,46.41448-9.51479q24.126,0,42.23874,8.978A88.13021,88.13021,0,0,1,1594.3194,451.758V420.49152Z"/><path class="cls-18" d="M1876.98581,429.77327l-5.5702,9.28366-23.67142,42.23683-.46609-.46228a66.6118,66.6118,0,0,0-55.69814-4.87487,61.65994,61.65994,0,0,0-19.02959,11.14039,68.34748,68.34748,0,0,0-14.15853,16.93981,59.49353,59.49353,0,0,0-7.65616,20.89014V652.56772h-63.12506V420.49152h63.12506v30.17q24.596-33.87676,71.94263-33.88344a119.06481,119.06481,0,0,1,53.8414,12.99521Z"/><g class="cls-19"><g class="cls-20"><ellipse class="cls-21" cx="1020.27846" cy="324.38526" rx="987.47465" ry="289.76715" transform="translate(-3.70089 11.87892) rotate(-0.66587)"/></g></g></g></g></g></svg>